<?xml version="1.0" encoding="UTF-8"?>
<svg width="471px" height="545px" viewBox="0 0 471 545" version="1.1" xmlns="http://www.w3.org/2000/svg" xmlns:xlink="http://www.w3.org/1999/xlink">
    <title>Group 33 Copy 13</title>
    <defs>
        <rect id="path-1" x="0" y="0" width="471" height="545"></rect>
        <filter x="-10.3%" y="-9.0%" width="120.7%" height="118.1%" filterUnits="objectBoundingBox" id="filter-3">
            <feGaussianBlur stdDeviation="5" in="SourceGraphic"></feGaussianBlur>
        </filter>
        <filter x="-4.1%" y="-3.6%" width="108.3%" height="107.2%" filterUnits="objectBoundingBox" id="filter-4">
            <feGaussianBlur stdDeviation="2" in="SourceGraphic"></feGaussianBlur>
        </filter>
    </defs>
    <g id="Page-1" stroke="none" strokeWidth="1" fill="none" fill-rule="evenodd">
        <g id="Group-33-Copy-13">
            <mask id="mask-2" fill="white">
                <use xlink:href="#path-1"></use>
            </mask>
            <g id="Rectangle"></g>
            <path d="M412.474567,86.4133916 L435.232447,99.7317114 C436.750032,100.61983 437.685841,102.267482 437.685841,104.051336 L437.685841,130.638929 C437.685841,132.422784 436.750032,134.070435 435.232447,134.958554 L412.474567,148.276874 C410.968167,149.158446 409.115904,149.158446 407.609504,148.276874 L384.851624,134.958554 C383.334038,134.070435 382.39823,132.422784 382.39823,130.638929 L382.39823,104.051336 C382.39823,102.267482 383.334038,100.61983 384.851624,99.7317114 L407.609504,86.4133916 C409.115904,85.5318193 410.968167,85.5318193 412.474567,86.4133916 Z" id="Path-Copy-9" fill="#CBE0F8" fill-rule="nonzero" opacity="0.549713135" mask="url(#mask-2)"></path>
            <path d="M345.863947,162.758524 L368.621827,176.076844 C370.139413,176.964963 371.075221,178.612614 371.075221,180.396469 L371.075221,206.984062 C371.075221,208.767916 370.139413,210.415568 368.621827,211.303687 L345.863947,224.622006 C344.357547,225.503579 342.505284,225.503579 340.998884,224.622006 L318.241005,211.303687 C316.723419,210.415568 315.787611,208.767916 315.787611,206.984062 L315.787611,180.396469 C315.787611,178.612614 316.723419,176.964963 318.241005,176.076844 L340.998884,162.758524 C342.505284,161.876952 344.357547,161.876952 345.863947,162.758524 Z" id="Path-Copy-24" stroke="#CBE0F8" strokeWidth="2" opacity="0.549713135" fill-rule="nonzero" mask="url(#mask-2)"></path>
            <path d="M345.532089,67.6833031 L368.289969,81.0016229 C369.807555,81.8897415 370.743363,83.5373933 370.743363,85.3212476 L370.743363,111.908841 C370.743363,113.692695 369.807555,115.340347 368.289969,116.228466 L345.532089,129.546785 C344.025689,130.428358 342.173426,130.428358 340.667026,129.546785 L317.909146,116.228466 C316.39156,115.340347 315.455752,113.692695 315.455752,111.908841 L315.455752,85.3212476 C315.455752,83.5373933 316.39156,81.8897415 317.909146,81.0016229 L340.667026,67.6833031 C342.173426,66.8017308 344.025689,66.8017308 345.532089,67.6833031 Z" id="Path-Copy-29" stroke="#FFFFFF" strokeWidth="2" opacity="0.549713135" fill-rule="nonzero" mask="url(#mask-2)"></path>
            <path d="M453.388437,-39.6139622 L513.127872,-4.65337274 C517.111534,-2.32206123 519.568031,2.00302454 519.568031,6.68564212 L519.568031,76.4780746 C519.568031,81.1606922 517.111534,85.4857781 513.127872,87.8170896 L453.388437,122.777678 C449.434137,125.091806 444.571946,125.091806 440.617647,122.777678 L380.878213,87.8170896 C376.894549,85.4857781 374.438053,81.1606922 374.438053,76.4780746 L374.438053,6.68564212 C374.438053,2.00302454 376.894549,-2.32206123 380.878213,-4.65337274 L440.617647,-39.6139622 C444.571946,-41.9280893 449.434137,-41.9280893 453.388437,-39.6139622 Z" id="Path-Copy-25" fill="#CBE0F8" fill-rule="nonzero" opacity="0.549713135" mask="url(#mask-2)"></path>
            <path d="M381.779876,12.5992323 L404.537756,25.9175521 C406.055342,26.8056707 406.99115,28.4533225 406.99115,30.2371768 L406.99115,56.8247701 C406.99115,58.6086244 406.055342,60.2562762 404.537756,61.1443949 L381.779876,74.4627144 C380.273477,75.3442869 378.421213,75.3442869 376.914814,74.4627144 L354.156934,61.1443949 C352.639348,60.2562762 351.70354,58.6086244 351.70354,56.8247701 L351.70354,30.2371768 C351.70354,28.4533225 352.639348,26.8056707 354.156934,25.9175521 L376.914814,12.5992323 C378.421213,11.71766 380.273477,11.71766 381.779876,12.5992323 Z" id="Path-Copy-27" fill="#FFFFFF" fill-rule="nonzero" opacity="0.549713135" mask="url(#mask-2)"></path>
            <path d="M277.609676,-79.1272366 L337.349111,-44.1666471 C341.332773,-41.8353356 343.78927,-37.5102498 343.78927,-32.8276322 L343.78927,36.9648003 C343.78927,41.6474179 341.332773,45.9725038 337.349111,48.3038153 L277.609676,83.264404 C273.655376,85.578532 268.793185,85.578532 264.838886,83.264404 L205.099452,48.3038153 C201.115788,45.9725038 198.659292,41.6474179 198.659292,36.9648003 L198.659292,-32.8276322 C198.659292,-37.5102498 201.115788,-41.8353356 205.099452,-44.1666471 L264.838886,-79.1272366 C268.793185,-81.4413636 273.655376,-81.4413636 277.609676,-79.1272366 Z" id="Path-Copy-30" stroke="#FFFFFF" strokeWidth="2" opacity="0.549713135" fill-rule="nonzero" mask="url(#mask-2)"></path>
            <path d="M428.330915,129.496657 L488.070349,164.457247 C492.054012,166.788558 494.510509,171.113644 494.510509,175.796262 L494.510509,245.588694 C494.510509,250.271312 492.054012,254.596398 488.070349,256.927709 L428.330915,291.888298 C424.376615,294.202426 419.514424,294.202426 415.560125,291.888298 L355.820691,256.927709 C351.837027,254.596398 349.380531,250.271312 349.380531,245.588694 L349.380531,175.796262 C349.380531,171.113644 351.837027,166.788558 355.820691,164.457247 L415.560125,129.496657 C419.514424,127.18253 424.376615,127.18253 428.330915,129.496657 Z" id="Path-Copy-26" fill="#CBE0F8" fill-rule="nonzero" opacity="0.549713135" filter="url(#filter-3)" mask="url(#mask-2)"></path>
            <path d="M230.950384,-80.2644047 L290.689819,-45.3038152 C294.673481,-42.9725037 297.129978,-38.6474179 297.129978,-33.9648004 L297.129978,35.8276321 C297.129978,40.5102497 294.673481,44.8353356 290.689819,47.1666471 L230.950384,82.1272359 C226.996084,84.4413638 222.133893,84.4413638 218.179594,82.1272359 L158.44016,47.1666471 C154.456496,44.8353356 152,40.5102497 152,35.8276321 L152,-33.9648004 C152,-38.6474179 154.456496,-42.9725037 158.44016,-45.3038152 L218.179594,-80.2644047 C222.133893,-82.5785318 226.996084,-82.5785318 230.950384,-80.2644047 Z" id="Path-Copy-28" fill="#FFFFFF" fill-rule="nonzero" opacity="0.549713135" filter="url(#filter-4)" mask="url(#mask-2)"></path>
        </g>
    </g>
</svg>