<?xml version="1.0" encoding="UTF-8"?>
<svg width="1534px" height="551px" viewBox="0 0 1534 551" version="1.1" xmlns="http://www.w3.org/2000/svg" xmlns:xlink="http://www.w3.org/1999/xlink">
    <!-- Generator: Sketch 51.3 (57544) - http://www.bohemiancoding.com/sketch -->
    <title>Group</title>
    <desc>Created with Sketch.</desc>
    <defs>
        <filter x="-5.5%" y="-4.8%" width="111.0%" height="109.5%" filterUnits="objectBoundingBox" id="filter-1">
            <feGaussianBlur stdDeviation="2.87265638" in="SourceGraphic"></feGaussianBlur>
        </filter>
        <filter x="-8.7%" y="-7.6%" width="117.5%" height="115.2%" filterUnits="objectBoundingBox" id="filter-2">
            <feGaussianBlur stdDeviation="8.42354911" in="SourceGraphic"></feGaussianBlur>
        </filter>
        <filter x="-8.5%" y="-7.4%" width="116.9%" height="114.8%" filterUnits="objectBoundingBox" id="filter-3">
            <feGaussianBlur stdDeviation="5.36707602" in="SourceGraphic"></feGaussianBlur>
        </filter>
        <filter x="-7.3%" y="-6.3%" width="114.5%" height="112.6%" filterUnits="objectBoundingBox" id="filter-4">
            <feGaussianBlur stdDeviation="3.80178584" in="SourceGraphic"></feGaussianBlur>
        </filter>
    </defs>
    <g id="Page-2" stroke="none" strokeWidth="1" fill="none" fill-rule="evenodd">
        <g id="Group" transform="translate(12.000000, -5.000000)" fill-rule="nonzero">
            <path d="M1275.94471,343.869366 L1283.54471,348.191795 C1284.29487,348.618441 1284.75821,349.414993 1284.75821,350.27799 L1284.75821,358.860744 C1284.75821,359.723741 1284.29487,360.520293 1283.54471,360.946939 L1275.94471,365.269368 C1275.20904,365.687775 1274.30738,365.687775 1273.5717,365.269368 L1265.9717,360.946939 C1265.22155,360.520293 1264.75821,359.723741 1264.75821,358.860744 L1264.75821,350.27799 C1264.75821,349.414993 1265.22155,348.618441 1265.9717,348.191795 L1273.5717,343.869366 C1274.30738,343.450959 1275.20904,343.450959 1275.94471,343.869366 Z" id="Polygon" fill="#FFFFFF" opacity="0.342912946" transform="translate(1274.758207, 354.569367) rotate(-10.000000) translate(-1274.758207, -354.569367) "></path>
            <path d="M1399.70371,112.028609 C1393.87299,108.649076 1386.67936,108.649076 1380.84864,112.028609 L1277.97185,171.656854 C1272.17063,175.019289 1268.59938,181.216974 1268.59938,187.922205 L1268.59938,307.308698 C1268.59938,314.013928 1272.17063,320.211613 1277.97185,323.574049 L1380.84864,383.202294 C1386.67936,386.581827 1393.87299,386.581827 1399.70371,383.202294 L1502.58049,323.574049 C1508.38171,320.211613 1511.95296,314.013928 1511.95296,307.308698 L1511.95296,187.922205 C1511.95296,181.216974 1508.38171,175.019289 1502.58049,171.656854 L1399.70371,112.028609 Z" id="Polygon" stroke="#FFFFFF" strokeWidth="0.800000012" opacity="0.322991214" transform="translate(1390.276172, 247.615451) rotate(-10.000000) translate(-1390.276172, -247.615451) "></path>
            <path d="M1063.99502,295.957361 L1134.46975,336.832302 C1136.93722,338.263424 1138.45603,340.900104 1138.45603,343.752569 L1138.45603,425.565872 C1138.45603,428.418337 1136.93722,431.055017 1134.46975,432.486139 L1063.99502,473.36108 C1061.51285,474.800725 1058.44976,474.800725 1055.96759,473.36108 L985.492861,432.486139 C983.025384,431.055017 981.506576,428.418337 981.506576,425.565872 L981.506576,343.752569 C981.506576,340.900104 983.025384,338.263424 985.492861,336.832302 L1055.96759,295.957361 C1058.44976,294.517716 1061.51285,294.517716 1063.99502,295.957361 Z" id="Polygon-Copy-6" fill="#FFFFFF" opacity="0.1171875" filter="url(#filter-1)" transform="translate(1059.981304, 384.659220) rotate(-10.000000) translate(-1059.981304, -384.659220) "></path>
            <path d="M1336.43225,23.6738137 L1473.12104,102.952532 C1475.58851,104.383654 1477.10732,107.020334 1477.10732,109.872799 L1477.10732,268.493656 C1477.10732,271.34612 1475.58851,273.9828 1473.12104,275.413923 L1336.43225,354.692641 C1333.95008,356.132286 1330.88699,356.132286 1328.40482,354.692641 L1191.71604,275.413923 C1189.24856,273.9828 1187.72975,271.34612 1187.72975,268.493656 L1187.72975,109.872799 C1187.72975,107.020334 1189.24856,104.383654 1191.71604,102.952532 L1328.40482,23.6738137 C1330.88699,22.2341691 1333.95008,22.2341691 1336.43225,23.6738137 Z" id="Polygon-Copy-7" fill="#FFFFFF" opacity="0.186160714" filter="url(#filter-2)" transform="translate(1332.418538, 189.183227) rotate(-10.000000) translate(-1332.418538, -189.183227) "></path>
            <path d="M99.9645831,270.079733 L187.013715,320.567736 C189.481192,321.998858 191,324.635538 191,327.488002 L191,428.527427 C191,431.379892 189.481192,434.016572 187.013715,435.447694 L99.9645831,485.935696 C97.482413,487.375341 94.4193227,487.375341 91.9371525,485.935696 L4.88802039,435.447694 C2.42054382,434.016572 0.901735694,431.379892 0.901735694,428.527427 L0.901735694,327.488002 C0.901735694,324.635538 2.42054382,321.998858 4.88802039,320.567736 L91.9371525,270.079733 C94.4193227,268.640089 97.482413,268.640089 99.9645831,270.079733 Z" id="Polygon-Copy-9" fill="#FFFFFF" opacity="0.1171875" filter="url(#filter-3)"></path>
            <path d="M179.829547,291.294735 L216.829546,312.767598 C220.529214,314.914691 222.80623,318.868843 222.80623,323.146406 L222.80623,366.199968 C222.80623,370.477531 220.529214,374.431683 216.829546,376.578776 L179.829547,398.051639 C176.104901,400.213229 171.507558,400.213229 167.782913,398.051639 L130.782913,376.578776 C127.083246,374.431683 124.80623,370.477531 124.80623,366.199968 L124.80623,323.146406 C124.80623,318.868843 127.083246,314.914691 130.782913,312.767598 L167.782913,291.294735 C171.507558,289.133146 176.104901,289.133146 179.829547,291.294735 Z" id="Polygon" fill="#FFFFFF" opacity="0.150279161" transform="translate(173.806230, 344.673187) rotate(-10.000000) translate(-173.806230, -344.673187) "></path>
            <path d="M220.944712,299.869366 L228.544711,304.191795 C229.29487,304.618441 229.758207,305.414993 229.758207,306.27799 L229.758207,314.860744 C229.758207,315.723741 229.29487,316.520293 228.544711,316.946939 L220.944712,321.269368 C220.209039,321.687775 219.307376,321.687775 218.571703,321.269368 L210.971704,316.946939 C210.221545,316.520293 209.758207,315.723741 209.758207,314.860744 L209.758207,306.27799 C209.758207,305.414993 210.221545,304.618441 210.971704,304.191795 L218.571703,299.869366 C219.307376,299.450959 220.209039,299.450959 220.944712,299.869366 Z" id="Polygon" fill="#FFFFFF" opacity="0.383258929" transform="translate(219.758207, 310.569367) rotate(-10.000000) translate(-219.758207, -310.569367) "></path>
            <path d="M181.927533,312.928098 C176.096815,309.548565 168.903185,309.548565 163.072467,312.928098 L103.772468,347.298873 C97.9712479,350.661308 94.4,356.858993 94.4,363.564224 L94.4,432.435776 C94.4,439.141007 97.9712479,445.338692 103.772468,448.701127 L163.072467,483.071902 C168.903185,486.451435 176.096815,486.451435 181.927533,483.071902 L241.227532,448.701127 C247.028752,445.338692 250.6,439.141007 250.6,432.435776 L250.6,363.564224 C250.6,356.858993 247.028752,350.661308 241.227532,347.298873 L181.927533,312.928098 Z" id="Polygon" stroke="#FFFFFF" strokeWidth="0.800000012" opacity="0.296540321" transform="translate(172.500000, 398.000000) rotate(-10.000000) translate(-172.500000, -398.000000) "></path>
            <path d="M406.488443,368.703833 L476.96317,409.578774 C479.430646,411.009897 480.949454,413.646577 480.949454,416.499041 L480.949454,498.312345 C480.949454,501.164809 479.430646,503.801489 476.96317,505.232611 L406.488443,546.107553 C404.006272,547.547197 400.943182,547.547197 398.461012,546.107553 L327.986285,505.232611 C325.518808,503.801489 324,501.164809 324,498.312345 L324,416.499041 C324,413.646577 325.518808,411.009897 327.986285,409.578774 L398.461012,368.703833 C400.943182,367.264188 404.006272,367.264188 406.488443,368.703833 Z" id="Polygon-Copy-10" fill="#FFFFFF" opacity="0.1171875" filter="url(#filter-4)"></path>
        </g>
    </g>
</svg>