<?xml version="1.0" encoding="UTF-8"?>
<svg width="701px" height="729px" viewBox="0 0 701 729" version="1.1" xmlns="http://www.w3.org/2000/svg" xmlns:xlink="http://www.w3.org/1999/xlink">
    <!-- Generator: Sketch 51.3 (57544) - http://www.bohemiancoding.com/sketch -->
    <title>Group 88</title>
    <desc>Created with Sketch.</desc>
    <defs></defs>
    <g id="Stonebranch,-Home,-Product" stroke="none" stroke-width="1" fill="none" fill-rule="evenodd">
        <g id="Group-88" fill-rule="nonzero">
            <path d="M328.117914,5.26852494 L597.436097,103.89689 C624.355041,113.755011 643.988608,137.200502 648.966626,165.432248 L699.052067,449.4809 C704.030086,477.712645 693.599398,506.459275 671.675542,524.9297 L452.33212,709.722291 C430.277709,728.302705 399.961329,733.648301 372.882086,723.731475 L103.563903,625.10311 C76.6449587,615.244989 57.0113921,591.799498 52.0333737,563.567752 L1.94793253,279.5191 C-3.03008587,251.287355 7.40060162,222.540725 29.3244584,204.0703 L248.66788,19.2777095 C270.722291,0.697294931 301.038671,-4.64830075 328.117914,5.26852494 Z" id="Polygon-Copy-4" fill="#1875F0" opacity="0.05"></path>
            <path d="M416.829547,237.294735 L453.829546,258.767598 C457.529214,260.914691 459.80623,264.868843 459.80623,269.146406 L459.80623,312.199968 C459.80623,316.477531 457.529214,320.431683 453.829546,322.578776 L416.829547,344.051639 C413.104901,346.213229 408.507558,346.213229 404.782913,344.051639 L367.782913,322.578776 C364.083246,320.431683 361.80623,316.477531 361.80623,312.199968 L361.80623,269.146406 C361.80623,264.868843 364.083246,260.914691 367.782913,258.767598 L404.782913,237.294735 C408.507558,235.133146 413.104901,235.133146 416.829547,237.294735 Z" id="Polygon" fill="#4A90E2" opacity="0.144643" transform="translate(410.806230, 290.673187) rotate(-10.000000) translate(-410.806230, -290.673187) "></path>
            <path d="M458.186504,246.299999 L465.786504,250.622428 C466.536662,251.049074 467,251.845626 467,252.708623 L467,261.291377 C467,262.154374 466.536662,262.950926 465.786504,263.377572 L458.186504,267.700001 C457.450831,268.118408 456.549169,268.118408 455.813496,267.700001 L448.213496,263.377572 C447.463338,262.950926 447,262.154374 447,261.291377 L447,252.708623 C447,251.845626 447.463338,251.049074 448.213496,250.622428 L455.813496,246.299999 C456.549169,245.881592 457.450831,245.881592 458.186504,246.299999 Z" id="Polygon" fill="#4A90E2" transform="translate(457.000000, 257.000000) rotate(-10.000000) translate(-457.000000, -257.000000) "></path>
            <path d="M418.927533,258.928098 C413.096815,255.548565 405.903185,255.548565 400.072467,258.928098 L340.772468,293.298873 C334.971248,296.661308 331.4,302.858993 331.4,309.564224 L331.4,378.435776 C331.4,385.141007 334.971248,391.338692 340.772468,394.701127 L400.072467,429.071902 C405.903185,432.451435 413.096815,432.451435 418.927533,429.071902 L478.227532,394.701127 C484.028752,391.338692 487.6,385.141007 487.6,378.435776 L487.6,309.564224 C487.6,302.858993 484.028752,296.661308 478.227532,293.298873 L418.927533,258.928098 Z" id="Polygon" stroke="#384A65" stroke-width="0.800000012" opacity="0.144643" transform="translate(409.500000, 344.000000) rotate(-10.000000) translate(-409.500000, -344.000000) "></path>
        </g>
    </g>
</svg>