<?xml version="1.0" encoding="UTF-8"?>
<svg xmlns="http://www.w3.org/2000/svg" xmlns:xlink="http://www.w3.org/1999/xlink" id="Ebene_1" data-name="Ebene 1" width="80" height="80" viewBox="0 0 80 80">
  <defs>
    <style>.cls-1{fill:url(#Unbenannter_Verlauf_2);}.cls-2,.cls-3{fill:none;stroke:#fff;stroke-linecap:round;stroke-linejoin:round;}.cls-2{stroke-width:2px;}</style>
    <linearGradient id="Unbenannter_Verlauf_2" x1="260.67" y1="-260.79" x2="334.6" y2="-260.79" gradientTransform="matrix(1, 0, 0, -1, -257.64, -220.94)" gradientUnits="userSpaceOnUse">
      <stop offset="0" stop-color="#ffcd76"></stop>
      <stop offset="1" stop-color="#ff7154"></stop>
    </linearGradient>
  </defs>
  <g id="Polygon-Copy-4">
    <path class="cls-1" d="M37.55,1.9,66,12.31a8.57,8.57,0,0,1,5.45,6.51l5.29,30a8.47,8.47,0,0,1-2.93,8L50.65,76.32a8.48,8.48,0,0,1-8.38,1.47L13.8,67.38a8.57,8.57,0,0,1-5.45-6.51L3.15,30.93a8.51,8.51,0,0,1,2.92-8L29.26,3.44A8.13,8.13,0,0,1,37.55,1.9Z"></path>
  </g>
  <path class="cls-2" d="M38.83,50.52C36,49.89,36,48.91,36,48.21V47.16a6.48,6.48,0,0,0,2-4.83V39.18a4.75,4.75,0,0,0-4.82-4.69h0a4.75,4.75,0,0,0-4.89,4.62v3.22a6.52,6.52,0,0,0,2.1,4.83v1.05c0,.63,0,1.68-2.94,2.31a3.33,3.33,0,0,0-2.66,3.57h16.8A3.57,3.57,0,0,0,38.83,50.52Z"></path>
  <path class="cls-2" d="M45.67,24.62H61.23V59.69h-42v-35l15.94-.07"></path>
  <path class="cls-2" d="M35.17,20.42l10.66.07v8.4l-10.66-.07Z"></path>
  <path class="cls-2" d="M44.43,34.49h11.2m-11.2,5.6h7m-7,5.6h9.8"></path>
  <path class="cls-3" d="M41.69,22.71a1.29,1.29,0,0,0-1.19.74,1.28,1.28,0,0,0-1.18-.74,1.15,1.15,0,0,0-1.19,1.11c0,1,.87,1.93,2.37,2.9,1.5-1,2.37-1.93,2.37-2.9A1.15,1.15,0,0,0,41.69,22.71Z"></path>
</svg>
