<?xml version="1.0" encoding="UTF-8"?>
<svg xmlns="http://www.w3.org/2000/svg" xmlns:xlink="http://www.w3.org/1999/xlink" id="Ebene_1" data-name="Ebene 1" width="80" height="80" viewBox="0 0 80 80">
  <defs>
    <style>.cls-1{fill:url(#Unbenannter_Verlauf_2);}.cls-2{fill:none;stroke:#fff;stroke-linecap:round;stroke-linejoin:round;stroke-width:2px;}</style>
    <linearGradient id="Unbenannter_Verlauf_2" x1="260.67" y1="-260.79" x2="334.6" y2="-260.79" gradientTransform="matrix(1, 0, 0, -1, -257.64, -220.94)" gradientUnits="userSpaceOnUse">
      <stop offset="0" stop-color="#ffcd76"></stop>
      <stop offset="1" stop-color="#ff7154"></stop>
    </linearGradient>
  </defs>
  <g id="Polygon-Copy-4">
    <path class="cls-1" d="M37.55,1.9,66,12.31a8.57,8.57,0,0,1,5.45,6.51l5.29,30a8.47,8.47,0,0,1-2.93,8L50.65,76.32a8.48,8.48,0,0,1-8.38,1.47L13.8,67.38a8.57,8.57,0,0,1-5.45-6.51L3.15,30.93a8.51,8.51,0,0,1,2.92-8L29.26,3.44A8.13,8.13,0,0,1,37.55,1.9Z"></path>
  </g>
  <path class="cls-2" d="M30.43,35.41v1.81c0,5,2,9.37,5.33,11.39m8.39,0c3.31-2,5.18-6.41,5.18-11.44V35.12"></path>
  <path class="cls-2" d="M34.63,47.8v.62c0,1.4.43,3.49-7.27,4.9-8.13,1.49-8.13,7.7-8.13,7.7h42s0-6-8.69-7.7c-7.49-1.48-7.41-3.5-7.41-4.9v-.5"></path>
  <path class="cls-2" d="M33.37,51.3l6.86,5.52-5.6,3.5-4.08-7.75m16-1.35-6.3,5.6,5.6,3.5,3.92-7.68M36,30.22a11.66,11.66,0,0,1-7,5.6m15.4-5.6a11.81,11.81,0,0,0,7,5.6"></path>
  <path class="cls-2" d="M33.31,22.49A12.62,12.62,0,0,0,27.63,33v2.52s.22,7.28-4.2,10.08c2.8,2.8,11.2,2.8,11.2,2.8M47.15,22.49A12.57,12.57,0,0,1,52.83,33v2.52s-.22,7.28,4.2,10.08c-2.8,2.8-11.9,2.8-11.9,2.8"></path>
  <path class="cls-2" d="M34.63,30.22h11.2s1.24-7.3,1.4-8.4a2.36,2.36,0,0,0-1.88-2.76,3.15,3.15,0,0,0-.53,0H35.51c-1.33,0-2.46.91-2.28,2.8S34.63,30.22,34.63,30.22Zm5.6-8.4v5.6m2.8-2.8h-5.6"></path>
</svg>
