<?xml version="1.0" encoding="UTF-8"?>
<svg xmlns="http://www.w3.org/2000/svg" xmlns:xlink="http://www.w3.org/1999/xlink" id="Ebene_1" data-name="Ebene 1" width="73.85" height="76.94" viewBox="0 0 73.85 76.94">
  <defs>
    <style>.cls-1{fill:url(#Unbenannter_Verlauf_2);}.cls-2{fill:none;stroke:#fff;stroke-linecap:round;stroke-linejoin:round;stroke-width:2px;}</style>
    <linearGradient id="Unbenannter_Verlauf_2" x1="260.67" y1="-260.79" x2="334.6" y2="-260.79" gradientTransform="matrix(1, 0, 0, -1, -257.64, -220.94)" gradientUnits="userSpaceOnUse">
      <stop offset="0" stop-color="#ffcd76"></stop>
      <stop offset="1" stop-color="#ff7154"></stop>
    </linearGradient>
  </defs>
  <g id="Polygon-Copy-4">
    <path class="cls-1" d="M37.55,1.9,66,12.31a8.57,8.57,0,0,1,5.45,6.51l5.29,30a8.47,8.47,0,0,1-2.93,8L50.65,76.32a8.48,8.48,0,0,1-8.38,1.47L13.8,67.38a8.57,8.57,0,0,1-5.45-6.51L3.15,30.93a8.51,8.51,0,0,1,2.92-8L29.26,3.44A8.13,8.13,0,0,1,37.55,1.9Z" transform="translate(-3.03 -1.38)"></path>
  </g>
  <path class="cls-2" d="M34.63,46.39v2c0,1.4.42,3.43-7.28,4.9S19.23,61,19.23,61h42s0-6-8.68-7.7c-7.49-1.47-7.42-3.5-7.42-4.9V46.53" transform="translate(-3.03 -1.38)"></path>
  <path class="cls-2" d="M29,53,40.23,61l11.2-7.91m-7.28-5.88a12,12,0,0,0,5-7.21c2.1,0,2.59-3,2.59-3.71S52.13,33.09,50,33v-4.2m-19.6,0V33c-2.1,0-2.1,2.87-2.1,3.5s.28,3.5,2.38,3.5a11.18,11.18,0,0,0,5,7.21" transform="translate(-3.03 -1.38)"></path>
  <path class="cls-2" d="M40.23,26l-19.6-4.2L40.23,19l19.6,2.8Z" transform="translate(-3.03 -1.38)"></path>
  <path class="cls-2" d="M30.43,23.92v4.9l9.8,1.4,9.8-1.4v-4.9M22,22.1V38.62" transform="translate(-3.03 -1.38)"></path>
</svg>
