<?xml version="1.0" encoding="UTF-8"?>
<svg xmlns="http://www.w3.org/2000/svg" xmlns:xlink="http://www.w3.org/1999/xlink" id="Ebene_1" data-name="Ebene 1" width="80" height="80" viewBox="0 0 80 80">
  <defs>
    <style>.cls-1{fill:url(#Unbenannter_Verlauf_2);}.cls-2{fill:none;stroke:#fff;stroke-linecap:round;stroke-linejoin:round;stroke-width:2px;}</style>
    <linearGradient id="Unbenannter_Verlauf_2" x1="260.67" y1="-260.79" x2="334.6" y2="-260.79" gradientTransform="matrix(1, 0, 0, -1, -257.64, -220.94)" gradientUnits="userSpaceOnUse">
      <stop offset="0" stop-color="#ffcd76"></stop>
      <stop offset="1" stop-color="#ff7154"></stop>
    </linearGradient>
  </defs>
  <g id="Polygon-Copy-4">
    <path class="cls-1" d="M37.55,1.9,66,12.31a8.57,8.57,0,0,1,5.45,6.51l5.29,30a8.47,8.47,0,0,1-2.93,8L50.65,76.32a8.48,8.48,0,0,1-8.38,1.47L13.8,67.38a8.57,8.57,0,0,1-5.45-6.51L3.15,30.93a8.51,8.51,0,0,1,2.92-8L29.26,3.44A8.13,8.13,0,0,1,37.55,1.9Z"></path>
  </g>
  <circle class="cls-2" cx="39.6" cy="39.68" r="21"></circle>
  <path class="cls-2" d="M50.8,45.91a12.94,12.94,0,0,1-22.4-.21m1.4-8.89a2.8,2.8,0,1,1,5.6,0m8.4,0a2.8,2.8,0,1,1,5.6,0"></path>
</svg>
