<?xml version="1.0" encoding="UTF-8"?>
<svg xmlns="http://www.w3.org/2000/svg" xmlns:xlink="http://www.w3.org/1999/xlink" id="Ebene_1" data-name="Ebene 1" width="80" height="80" viewBox="0 0 80 80">
  <defs>
    <style>.cls-1{fill:url(#Unbenannter_Verlauf_2);}.cls-2{fill:none;stroke:#fff;stroke-linecap:round;stroke-linejoin:round;stroke-width:2px;}</style>
    <linearGradient id="Unbenannter_Verlauf_2" x1="260.67" y1="-260.79" x2="334.6" y2="-260.79" gradientTransform="matrix(1, 0, 0, -1, -257.64, -220.94)" gradientUnits="userSpaceOnUse">
      <stop offset="0" stop-color="#ffcd76"></stop>
      <stop offset="1" stop-color="#ff7154"></stop>
    </linearGradient>
  </defs>
  <g id="Polygon-Copy-4">
    <path class="cls-1" d="M37.55,1.9,66,12.31a8.57,8.57,0,0,1,5.45,6.51l5.29,30a8.47,8.47,0,0,1-2.93,8L50.65,76.32a8.48,8.48,0,0,1-8.38,1.47L13.8,67.38a8.57,8.57,0,0,1-5.45-6.51L3.15,30.93a8.51,8.51,0,0,1,2.92-8L29.26,3.44A8.13,8.13,0,0,1,37.55,1.9Z"></path>
  </g>
  <path class="cls-2" d="M22.79,60a18.75,18.75,0,0,1,13.38-5.6C44.66,54.4,50.8,60,50.8,60Zm23.8-29.4c1,6.61,1.46,16.46-5.49,24.42"></path>
  <path class="cls-2" d="M41,40.4c.47-.67,4.71-8.22,5.48-9.59a.18.18,0,0,1,.24-.06.08.08,0,0,1,0,0L55,40.4a18.72,18.72,0,0,0-2.62-9.53.06.06,0,0,1,0-.08s0,0,.07,0a37.85,37.85,0,0,0,6.73,4s.25-3.89-4-6.84a.1.1,0,0,1,0-.14.12.12,0,0,1,.07-.05c3-.31,3.92-1.37,3.92-1.37S55.38,23.16,51,24.91a.12.12,0,0,1-.16-.06.22.22,0,0,1,0-.08c.48-2.29,1.35-5.37,1.35-5.37s-3.94,1.62-5.5,4a.2.2,0,0,1-.26.07c-3.91-2.2-6.84-1.31-6.84-1.31l4,4a.09.09,0,0,1,0,.13.11.11,0,0,1-.08,0,8.29,8.29,0,0,0-8.14,4.23,26.37,26.37,0,0,1,6.76-.05.13.13,0,0,1,.11.15.16.16,0,0,1,0,.07C41.58,31.46,39.49,34.29,41,40.4Z"></path>
  <circle class="cls-2" cx="25.59" cy="36.2" r="5.6"></circle>
</svg>
