<?xml version="1.0" encoding="UTF-8"?>
<svg xmlns="http://www.w3.org/2000/svg" xmlns:xlink="http://www.w3.org/1999/xlink" id="Ebene_1" data-name="Ebene 1" width="80" height="80" viewBox="0 0 80 80">
  <defs>
    <style>.cls-1{fill:url(#Unbenannter_Verlauf_2);}.cls-2{fill:none;stroke:#fff;stroke-linecap:round;stroke-linejoin:round;stroke-width:2px;}</style>
    <linearGradient id="Unbenannter_Verlauf_2" x1="260.67" y1="-260.79" x2="334.6" y2="-260.79" gradientTransform="matrix(1, 0, 0, -1, -257.64, -220.94)" gradientUnits="userSpaceOnUse">
      <stop offset="0" stop-color="#ffcd76"></stop>
      <stop offset="1" stop-color="#ff7154"></stop>
    </linearGradient>
  </defs>
  <g id="Polygon-Copy-4">
    <path class="cls-1" d="M37.55,1.9,66,12.31a8.57,8.57,0,0,1,5.45,6.51l5.29,30a8.47,8.47,0,0,1-2.93,8L50.65,76.32a8.48,8.48,0,0,1-8.38,1.47L13.8,67.38a8.57,8.57,0,0,1-5.45-6.51L3.15,30.93a8.51,8.51,0,0,1,2.92-8L29.26,3.44A8.13,8.13,0,0,1,37.55,1.9Z"></path>
  </g>
  <path class="cls-2" d="M36,31.27a15,15,0,0,0-5,1.54c-5.53,2.94-6.44,7.7-6.44,11.41s1.61,9.17,7.56,14h5.11v-2.8l6.23.35a14.19,14.19,0,0,0,1.61,2.45h4.69V54a32.75,32.75,0,0,0,4.2-3.5c2,.21,4.13-1.4,4.9-6.09,0-.7-.35-.91-.7-.91a4.68,4.68,0,0,1-2.1-.7,39.81,39.81,0,0,0-2.66-5.6,8.28,8.28,0,0,1,2.87-3.64,12.79,12.79,0,0,0-8-1.26c-1.05-.21-2.8-.63-4.48-.91"></path>
  <circle class="cls-2" cx="39.98" cy="27.42" r="5.6"></circle>
  <path class="cls-2" d="M24.58,44.22c-2-.21-7-1-7,1.4s1.33,2.38,2.66,1.82,3-3.85-2.66-6m18-6.23a14.08,14.08,0,0,1,8.89-.07"></path>
  <circle class="cls-2" cx="49.78" cy="41.42" r="0.7"></circle>
</svg>
