
<svg width="434" height="447" viewBox="0 0 434 447" version="1.1" xmlns="http://www.w3.org/2000/svg">

    <defs>
        <linearGradient x1="45%" y1="0%" x2="35%" y2="100%" id="linearGradient-1">
            <stop stop-color="#1672EB" offset="0%"></stop>
            <stop stop-color="#05B8D8" offset="100%"></stop>
        </linearGradient>
    </defs>
    <g opacity="0.1">
        <path d="M225.5932,-0.312941911 L409.5932,104.301584 C414.907973,107.323336 418.190847,112.966223 418.190847,119.079962 L418.190847,327.85971 C418.190847,333.973449 414.907973,339.616335 409.5932,342.638088 L225.5932,447.252614 C220.383236,450.214776 213.998457,450.214776 208.788493,447.252614 L24.7884932,342.638088 C19.4737199,339.616335 16.1908465,333.973449 16.1908465,327.85971 L16.1908465,119.079962 C16.1908465,112.966223 19.4737199,107.323336 24.7884932,104.301584 L208.788493,-0.312941911 C213.998457,-3.27510448 220.383236,-3.27510448 225.5932,-0.312941911 Z" id="Polygon-Copy-9" fill="url(#linearGradient-1)" fill-rule="nonzero" transform="translate(217.190847, 223.469836) rotate(-10.000000) translate(-217.190847, -223.469836) " />
    </g>
</svg>
